<svg width="24" height="24" viewBox="0 0 24 24" fill="none" xmlns="http://www.w3.org/2000/svg">
<path d="M18.825 5.05313C17.0084 3.25565 14.5556 2.24821 12 2.25H11.8969C9.60391 2.27242 7.39222 3.1023 5.65049 4.59379C3.90875 6.08528 2.74844 8.14293 2.37346 10.4051C1.99847 12.6673 2.43282 14.9893 3.60017 16.963C4.76752 18.9367 6.59316 20.4358 8.75625 21.1969C9.20862 21.3557 9.69246 21.4038 10.1672 21.3371C10.642 21.2704 11.0939 21.0909 11.485 20.8136C11.8761 20.5364 12.1951 20.1694 12.4152 19.7435C12.6353 19.3175 12.7501 18.8451 12.75 18.3656V18C12.75 17.6022 12.908 17.2206 13.1893 16.9393C13.4706 16.658 13.8522 16.5 14.25 16.5H18.5812C19.2625 16.5051 19.9248 16.276 20.4573 15.851C20.9898 15.4261 21.3601 14.8311 21.5062 14.1656C21.6767 13.428 21.7585 12.6727 21.75 11.9156C21.7424 10.6349 21.4799 9.36843 20.9777 8.1902C20.4755 7.01198 19.7437 5.94555 18.825 5.05313ZM8.34375 15.4125C8.15101 15.5236 7.92966 15.575 7.7077 15.5603C7.48573 15.5456 7.27311 15.4654 7.09671 15.3298C6.92031 15.1943 6.78805 15.0095 6.71664 14.7989C6.64523 14.5882 6.63789 14.3611 6.69553 14.1462C6.75317 13.9314 6.87322 13.7384 7.04049 13.5918C7.20777 13.4451 7.41476 13.3514 7.63531 13.3224C7.85586 13.2933 8.08006 13.3303 8.27958 13.4287C8.4791 13.5271 8.64498 13.6824 8.75625 13.875C8.8302 14.003 8.87819 14.1444 8.89749 14.2909C8.91678 14.4375 8.90699 14.5865 8.86868 14.7293C8.83037 14.872 8.76429 15.0059 8.67422 15.1231C8.58415 15.2404 8.47185 15.3387 8.34375 15.4125ZM8.75625 10.125C8.64498 10.3176 8.4791 10.4729 8.27958 10.5713C8.08006 10.6697 7.85586 10.7067 7.63531 10.6777C7.41476 10.6486 7.20777 10.5549 7.04049 10.4082C6.87322 10.2616 6.75317 10.0686 6.69553 9.85379C6.63789 9.63894 6.64523 9.41182 6.71664 9.20114C6.78805 8.99047 6.92031 8.80569 7.09671 8.67016C7.27311 8.53464 7.48573 8.45445 7.7077 8.43974C7.92966 8.42502 8.15101 8.47645 8.34375 8.5875C8.60058 8.73832 8.78779 8.98409 8.86497 9.27175C8.94215 9.55941 8.9031 9.86589 8.75625 10.125ZM12 8.25C11.7775 8.25 11.56 8.18402 11.375 8.06041C11.19 7.93679 11.0458 7.76109 10.9606 7.55552C10.8755 7.34996 10.8532 7.12375 10.8966 6.90553C10.94 6.6873 11.0472 6.48684 11.2045 6.32951C11.3618 6.17217 11.5623 6.06503 11.7805 6.02162C11.9988 5.97821 12.225 6.00049 12.4305 6.08564C12.6361 6.17079 12.8118 6.31498 12.9354 6.49999C13.059 6.68499 13.125 6.9025 13.125 7.125C13.125 7.42337 13.0065 7.70952 12.7955 7.9205C12.5845 8.13148 12.2984 8.25 12 8.25ZM16.7812 10.5375C16.5885 10.6486 16.3672 10.7 16.1452 10.6853C15.9232 10.6706 15.7106 10.5904 15.5342 10.4548C15.3578 10.3193 15.2255 10.1345 15.1541 9.92386C15.0827 9.71318 15.0754 9.48606 15.133 9.27121C15.1907 9.05636 15.3107 8.86342 15.478 8.71678C15.6453 8.57014 15.8523 8.47638 16.0728 8.44735C16.2934 8.41832 16.5176 8.45533 16.7171 8.5537C16.9166 8.65207 17.0825 8.80738 17.1937 9C17.3406 9.25912 17.3796 9.56559 17.3025 9.85326C17.2253 10.1409 17.0381 10.3867 16.7812 10.5375Z" fill="black"/>
</svg>
