<svg width="24" height="24" viewBox="0 0 24 24" fill="none" xmlns="http://www.w3.org/2000/svg">
<path d="M9 5.25C9 4.00736 10.0074 3 11.25 3C12.4926 3 13.5 4.00736 13.5 5.25C13.5 6.49264 12.4926 7.5 11.25 7.5C10.0074 7.5 9 6.49264 9 5.25Z" fill="black"/>
<path d="M5.78033 19.2803L19.2803 5.78033C19.5732 5.48744 19.5732 5.01256 19.2803 4.71967C18.9874 4.42678 18.5126 4.42678 18.2197 4.71967L4.71967 18.2197C4.42678 18.5126 4.42678 18.9874 4.71967 19.2803C5.01256 19.5732 5.48744 19.5732 5.78033 19.2803Z" fill="black"/>
<path d="M17.25 12C16.0074 12 15 13.0074 15 14.25C15 15.4926 16.0074 16.5 17.25 16.5C18.4926 16.5 19.5 15.4926 19.5 14.25C19.5 13.0074 18.4926 12 17.25 12Z" fill="black"/>
<path d="M4.5 9.75C4.5 8.50736 5.50736 7.5 6.75 7.5C7.99264 7.5 9 8.50736 9 9.75C9 10.9926 7.99264 12 6.75 12C5.50736 12 4.5 10.9926 4.5 9.75Z" fill="black"/>
<path d="M12.75 16.5C11.5074 16.5 10.5 17.5074 10.5 18.75C10.5 19.9926 11.5074 21 12.75 21C13.9926 21 15 19.9926 15 18.75C15 17.5074 13.9926 16.5 12.75 16.5Z" fill="black"/>
</svg>
