<svg width="24" height="24" viewBox="0 0 24 24" fill="none" xmlns="http://www.w3.org/2000/svg">
<path d="M21.5531 6.63563C21.5506 6.63563 21.5483 6.63464 21.5465 6.63288C21.5447 6.63112 21.5438 6.62874 21.5438 6.62625C21.4083 6.39555 21.2142 6.20474 20.9813 6.07313L12.7313 1.4325C12.5077 1.3077 12.256 1.24219 12 1.24219C11.744 1.24219 11.4923 1.3077 11.2688 1.4325L3.01876 6.07313C2.78581 6.20474 2.59176 6.39555 2.45626 6.62625C2.45626 6.62874 2.45527 6.63112 2.45351 6.63288C2.45175 6.63464 2.44937 6.63563 2.44688 6.63563V6.65438C2.31727 6.87281 2.24924 7.12226 2.25001 7.37625V16.62C2.25048 16.8872 2.3219 17.1496 2.45696 17.3802C2.59203 17.6108 2.7859 17.8014 3.01876 17.9325L11.2688 22.5731C11.4765 22.6864 11.7074 22.7506 11.9438 22.7606H12.075C12.3052 22.7491 12.5297 22.6849 12.7313 22.5731L20.9813 17.9325C21.2141 17.8014 21.408 17.6108 21.543 17.3802C21.6781 17.1496 21.7495 16.8872 21.75 16.62V7.37625C21.7514 7.11627 21.6834 6.86062 21.5531 6.63563ZM12.0844 11.1356L4.53751 6.93563L12 2.73563L19.4719 6.93563L12.0844 11.1356ZM20.25 16.62L12.7594 20.8388L12.8344 12.4388L20.25 8.22V16.62Z" fill="black"/>
</svg>
