<svg width="24" height="24" viewBox="0 0 24 24" fill="none" xmlns="http://www.w3.org/2000/svg">
<path d="M22.1916 17.6246L13.951 3.37457C13.7537 3.03185 13.4696 2.74718 13.1272 2.54924C12.7849 2.35129 12.3964 2.24707 12.001 2.24707C11.6055 2.24707 11.217 2.35129 10.8747 2.54924C10.5324 2.74718 10.2482 3.03185 10.051 3.37457L1.81034 17.6246C1.61015 17.9656 1.50376 18.3534 1.50198 18.7488C1.50019 19.1442 1.60307 19.5331 1.80017 19.8759C1.99726 20.2186 2.28156 20.5031 2.62418 20.7005C2.96681 20.8979 3.35556 21.0011 3.75096 20.9996H20.251C20.6464 21.0011 21.0351 20.8979 21.3777 20.7005C21.7204 20.5031 22.0047 20.2186 22.2018 19.8759C22.3989 19.5331 22.5017 19.1442 22.4999 18.7488C22.4982 18.3534 22.3918 17.9656 22.1916 17.6246ZM11.251 9.74957C11.251 9.55066 11.33 9.3599 11.4706 9.21924C11.6113 9.07859 11.802 8.99957 12.001 8.99957C12.1999 8.99957 12.3906 9.07859 12.5313 9.21924C12.6719 9.3599 12.751 9.55066 12.751 9.74957V13.4996C12.751 13.6985 12.6719 13.8893 12.5313 14.0299C12.3906 14.1706 12.1999 14.2496 12.001 14.2496C11.802 14.2496 11.6113 14.1706 11.4706 14.0299C11.33 13.8893 11.251 13.6985 11.251 13.4996V9.74957ZM12.001 17.9996C11.7785 17.9996 11.5609 17.9336 11.3759 17.81C11.1909 17.6864 11.0467 17.5107 10.9616 17.3051C10.8764 17.0995 10.8542 16.8733 10.8976 16.6551C10.941 16.4369 11.0481 16.2364 11.2055 16.0791C11.3628 15.9217 11.5633 15.8146 11.7815 15.7712C11.9997 15.7278 12.2259 15.7501 12.4315 15.8352C12.637 15.9204 12.8127 16.0646 12.9364 16.2496C13.06 16.4346 13.126 16.6521 13.126 16.8746C13.126 17.1729 13.0074 17.4591 12.7965 17.6701C12.5855 17.881 12.2993 17.9996 12.001 17.9996Z" fill="black"/>
</svg>
