<svg width="24" height="24" viewBox="0 0 24 24" fill="none" xmlns="http://www.w3.org/2000/svg">
<path d="M15 20.2502H14.9625C14.8164 20.2417 14.6758 20.1912 14.5577 20.1047C14.4396 20.0182 14.349 19.8995 14.2969 19.7627L8.94375 5.70019L5.93437 12.3096C5.87482 12.4411 5.77856 12.5526 5.65716 12.6308C5.53576 12.709 5.39438 12.7504 5.25 12.7502H2.25C2.05109 12.7502 1.86032 12.6712 1.71967 12.5305C1.57902 12.3899 1.5 12.1991 1.5 12.0002C1.5 11.8013 1.57902 11.6105 1.71967 11.4699C1.86032 11.3292 2.05109 11.2502 2.25 11.2502H4.77188L8.31562 3.44082C8.37905 3.30633 8.48012 3.19313 8.60658 3.11493C8.73304 3.03672 8.87947 2.99687 9.02813 3.00019C9.17621 3.00568 9.31936 3.05491 9.43949 3.14167C9.55962 3.22843 9.65136 3.34884 9.70312 3.48769L15.0938 17.6346L18.075 11.6627C18.1396 11.5392 18.2365 11.4356 18.3554 11.363C18.4743 11.2903 18.6107 11.2513 18.75 11.2502H21.75C21.9489 11.2502 22.1397 11.3292 22.2803 11.4699C22.421 11.6105 22.5 11.8013 22.5 12.0002C22.5 12.1991 22.421 12.3899 22.2803 12.5305C22.1397 12.6712 21.9489 12.7502 21.75 12.7502H19.2094L15.675 19.8377C15.6104 19.9612 15.5135 20.0648 15.3946 20.1374C15.2757 20.2101 15.1393 20.2491 15 20.2502Z" fill="black"/>
</svg>
